# xmcd CD database file
#
# Track frame offsets:
#	150
#	20677
#	43632
#	68465
#	70577
#	97780
#	124097
#	127025
#	147495
#	170802
#	195800
#	215642
#	234010
#	258657
#	280695
#	300882
#
# Disc length: 4289 seconds
#
# Revision: 6
# Processed by: cddbd v1.5.2PL0 Copyright (c) Steve Scherf et al.
# Submitted via: CDex 1.70beta2
#
DISCID=d810bf10
DTITLE=ANN NESBY - I'm Here For You
DYEAR=1900
DGENRE=R and B
TTITLE0=Let the Rain Fall
TTITLE1=I'm Still Wearing Your Name
TTITLE2=If You Love Me
TTITLE3=The Invitation
TTITLE4=(What a) Lovely Evening
TTITLE5=I'll Do Anything For You
TTITLE6=String Interlude
TTITLE7=Thrill Me
TTITLE8=Hold On
TTITLE9=In the Spirit
TTITLE10=This Weekend
TTITLE11=Can I Get a Witness
TTITLE12=I'm Here for You
TTITLE13=I'll Be Your Everything
TTITLE14=Let Old Memories Be
TTITLE15=Lord How I Need You
EXTD=
EXTT0=
EXTT1=
EXTT2=
EXTT3=
EXTT4=
EXTT5=
EXTT6=
EXTT7=
EXTT8=
EXTT9=
EXTT10=
EXTT11=
EXTT12=
EXTT13=
EXTT14=
EXTT15=
PLAYORDER=
